<svg xmlns="http://www.w3.org/2000/svg" height="48" viewBox="0 96 960 960" width="48"><path d="m480 880.654-22.077-20.885q-99.817-91.279-165.175-156.965-65.358-65.687-103.799-115.532t-53.118-89.927q-14.677-40.083-14.677-79.614 0-74.09 50.268-124.449 50.269-50.359 124.309-50.359 54.117 0 101.058 29.308 46.942 29.307 83.211 85.807 38.923-57.461 84.421-86.288 45.498-28.827 99.977-28.827 73.915 0 124.182 50.262 50.266 50.262 50.266 124.207 0 39.843-14.677 79.939-14.677 40.096-53.003 89.732-38.325 49.635-103.94 115.574-65.615 65.94-165.149 157.132L480 880.654Zm0-40.5q97.925-89.633 161.46-153.281 63.534-63.647 100.883-111.414t51.83-84.643q14.481-36.877 14.481-72.844 0-61.895-41.474-103.376-41.473-41.481-102.44-41.481-51.77 0-93.197 29.577-41.428 29.577-78.658 91.693h-26q-37.77-61.885-79.539-91.577-41.769-29.693-91.925-29.693-60.358 0-102.217 41.324-41.858 41.324-41.858 104.199 0 35.909 14.908 72.684 14.907 36.776 51.568 84.508 36.661 47.731 100.439 111.431Q382.038 750.962 480 840.154Zm0-283.962Z"/></svg>