<svg xmlns="http://www.w3.org/2000/svg"  viewBox="0 0 50 50" width="25px" height="25px"><path d="M 25 12 C 11.492 12 9.6880312 12.135469 7.9570312 13.855469 C 6.2260312 15.576469 6 18.311 6 25 C 6 31.689 6.2260313 34.423531 7.9570312 36.144531 C 9.6880313 37.864531 11.492 38 25 38 C 38.508 38 40.311969 37.864531 42.042969 36.144531 C 43.773969 34.423531 44 31.689 44 25 C 44 18.311 43.773969 15.576469 42.042969 13.855469 C 40.311969 12.135469 38.508 12 25 12 z M 25 13 C 38.937 13 40.20775 13.362063 41.21875 14.414062 C 42.23075 15.466062 43 16.2 43 25 C 43 33.8 42.222984 34.549594 41.208984 35.558594 C 40.174984 36.588594 39.165 37 25 37 C 10.835 37 9.7317031 36.554953 8.7207031 35.501953 C 7.7087031 34.449953 7 33.687 7 25 C 7 16.313 7.76925 15.466063 8.78125 14.414062 C 9.79225 13.362063 11.95 13 25 13 z M 21.759766 19.414062 L 21.759766 30.585938 L 31.476562 24.955078 L 21.759766 19.414062 z"/></svg>