<svg xmlns="http://www.w3.org/2000/svg" height="48" viewBox="0 -960 960 960" width="48"><path d="M784.654-155.5 529.223-411.115q-29.381 27.328-69.33 41.299-39.949 13.97-78.812 13.97-95.722 0-161.536-65.793-65.814-65.792-65.814-160.423 0-94.63 65.309-160.553 65.31-65.924 160.364-65.924t161.421 65.836q66.367 65.836 66.367 160.4 0 41.072-15.153 80.63-15.154 39.558-41.116 69.103l255.846 254.185-22.115 22.885ZM380.692-386.038q82.161 0 139.234-56.528Q577-499.093 577-582.296q0-83.204-57.074-139.627-57.073-56.423-139.676-56.423-82.795 0-139.561 56.527-56.766 56.527-56.766 139.731 0 83.203 56.84 139.626 56.84 56.424 139.929 56.424Z"/></svg>