<svg xmlns="http://www.w3.org/2000/svg" height="48" viewBox="0 -960 960 960" width="48"><path d="m782-164.5-253.766-254q-29.339 27.577-69.285 41.538Q419.003-363 381.658-363q-92.411 0-155.784-63.337-63.374-63.338-63.374-155 0-91.663 62.791-155.163Q288.083-800 380.064-800t156.208 63.385Q600.5-673.231 600.5-581.712 600.5-541 585-501.5t-41 67.479L798-181.5l-16 17ZM381.5-385q82.583 0 139.792-56.368 57.208-56.367 57.208-140.25 0-83.882-57.208-140.132Q464.083-778 381-778t-139.792 56.368Q184.5-665.265 184.5-581.382q0 83.882 56.792 140.132Q298.083-385 381.5-385Z"/></svg>