<svg xmlns="http://www.w3.org/2000/svg" height="48" viewBox="0 96 960 960" width="48"><path d="m480 880.654-22.077-20.885q-100.048-91.158-165.291-156.905-65.242-65.747-103.683-115.592t-53.118-89.795q-14.677-39.951-14.677-79.746 0-74.271 50.268-124.539 50.269-50.269 124.309-50.269 54.117 0 101.058 29.308 46.942 29.307 83.211 85.807 38.923-57.461 84.532-86.288 45.608-28.827 99.866-28.827 73.915 0 124.182 50.171 50.266 50.172 50.266 124.298 0 40.107-14.677 80.071t-53.091 89.765q-38.413 49.801-103.824 115.636-65.411 65.834-165.177 156.905L480 880.654Z"/></svg>