<?xml version="1.0" encoding="UTF-8"?>
<svg version="1.1" xmlns="http://www.w3.org/2000/svg" width="1080" height="1080">
<path d="M0,0 L1080,0 L1080,1080 L0,1080 Z " fill="#FEFEFE" transform="translate(0,0)"/>
<path d="M0,0 L7,6 L169,168 L176,162 L338,0 L342,2 L436,96 L444,103 L550,209 L558,216 L626,284 L620,291 L170,741 L163,735 L-287,285 L-281,278 L-260,257 L-252,250 L-142,140 L-134,133 L-24,23 L-16,16 Z " fill="#E7B9C0" transform="translate(372,51)"/>
<path d="M0,0 L4,2 L171,169 L175,167 L274,68 L281,60 L341,0 L345,2 L407,64 L401,71 L172,300 L165,294 L-64,65 L-58,58 Z " fill="#FEFEFE" transform="translate(370,271)"/>
<path d="M0,0 L129,0 L123,7 L-247,377 L-248,377 L-248,248 Z " fill="#FEFEFE" transform="translate(806,352)"/>
<path d="M0,0 L129,0 L377,248 L377,377 L370,371 L0,1 Z " fill="#FEFEFE" transform="translate(148,352)"/>
<path d="M0,0 L1,0 L1,129 L-78,208 L-207,208 L-201,201 Z " fill="#FEFEFE" transform="translate(354,112)"/>
<path d="M0,0 L7,6 L207,206 L207,207 L78,207 L0,129 Z " fill="#FEFEFE" transform="translate(728,112)"/>
<path d="M0,0 L1,0 L1,130 L-135,266 L-137,266 L-137,137 Z " fill="#FEFEFE" transform="translate(695,112)"/>
<path d="M0,0 L7,6 L138,137 L138,266 L131,260 L36,165 L28,158 L0,130 Z " fill="#FEFEFE" transform="translate(387,112)"/>
<path d="M0,0 L20,0 L32,4 L43,11 L52,20 L60,33 L65,46 L68,63 L68,84 L64,100 L59,110 L50,120 L41,126 L33,129 L26,130 L11,130 L-1,126 L-12,119 L-19,112 L-27,99 L-33,85 L-36,70 L-36,46 L-35,37 L-30,24 L-23,14 L-14,6 L-6,2 Z " fill="#FCFCFC" transform="translate(541,830)"/>
<path d="M0,0 L20,0 L30,3 L40,9 L50,18 L57,28 L63,41 L66,52 L68,65 L68,82 L64,99 L58,111 L49,121 L41,126 L33,129 L26,130 L12,130 L1,127 L-10,121 L-20,111 L-29,96 L-35,78 L-36,70 L-36,42 L-33,30 L-26,17 L-16,7 L-4,1 Z " fill="#FCFCFC" transform="translate(701,830)"/>
<path d="M0,0 L26,0 L30,5 L37,24 L53,68 L65,97 L72,111 L75,108 L84,89 L99,52 L114,12 L118,4 L123,0 L146,0 L153,3 L154,8 L143,14 L141,18 L141,95 L142,119 L144,131 L153,135 L156,137 L156,142 L151,145 L144,147 L121,147 L112,144 L110,142 L111,138 L117,134 L121,132 L123,128 L123,45 L122,25 L100,81 L81,128 L74,142 L69,144 L65,139 L57,123 L45,94 L29,52 L20,28 L19,38 L19,131 L23,134 L30,137 L31,138 L31,143 L25,146 L-5,146 L-10,142 L-9,137 L1,132 L3,125 L5,106 L6,82 L6,15 L1,12 L-6,8 L-5,3 Z " fill="#050505" transform="translate(175,821)"/>
<path d="M0,0 L28,0 L39,3 L55,11 L67,22 L74,31 L82,47 L86,62 L86,94 L83,105 L78,117 L69,130 L61,138 L50,145 L37,150 L30,151 L10,152 L38,164 L56,170 L60,171 L72,171 L78,167 L82,158 L83,157 L88,157 L90,159 L90,167 L84,176 L75,182 L70,184 L48,184 L30,178 L-8,161 L-24,155 L-33,155 L-35,160 L-40,165 L-46,165 L-48,163 L-48,156 L-44,151 L-36,147 L-33,146 L-15,145 L-27,138 L-39,127 L-46,117 L-51,107 L-55,96 L-57,86 L-57,65 L-55,52 L-50,39 L-43,27 L-34,17 L-23,9 L-11,3 Z M-1,11 L-12,15 L-21,22 L-28,30 L-34,42 L-36,48 L-37,57 L-37,81 L-34,96 L-26,114 L-18,125 L-9,133 L0,138 L10,141 L25,141 L35,139 L47,133 L56,124 L61,115 L65,104 L67,95 L67,74 L64,57 L59,44 L50,30 L41,21 L29,14 L19,11 Z " fill="#040404" transform="translate(542,819)"/>
<path d="M0,0 L27,0 L39,3 L55,11 L67,22 L75,33 L81,45 L85,58 L86,67 L86,89 L84,102 L77,118 L71,127 L63,136 L53,143 L42,148 L30,151 L10,152 L35,163 L52,169 L60,171 L71,171 L77,168 L82,158 L83,157 L88,157 L90,160 L90,167 L86,173 L77,181 L70,184 L49,184 L32,179 L12,170 L-13,159 L-24,155 L-32,155 L-39,164 L-40,165 L-46,165 L-48,163 L-48,155 L-41,149 L-34,146 L-15,145 L-26,139 L-38,128 L-45,119 L-52,105 L-56,92 L-57,87 L-57,64 L-56,55 L-51,40 L-42,25 L-31,14 L-18,6 L-8,2 Z M-1,11 L-12,15 L-20,21 L-27,28 L-35,44 L-37,53 L-37,81 L-35,93 L-28,111 L-20,123 L-11,132 L2,139 L11,141 L25,141 L34,139 L43,135 L51,129 L57,122 L63,110 L67,93 L67,76 L64,58 L59,45 L54,36 L46,26 L38,19 L24,12 L19,11 Z " fill="#040404" transform="translate(702,819)"/>
<path d="M0,0 L31,0 L38,3 L40,5 L39,9 L29,14 L27,17 L26,24 L25,44 L25,88 L27,108 L29,116 L33,125 L39,132 L48,137 L55,139 L73,139 L84,135 L90,131 L96,124 L100,117 L102,106 L103,92 L103,20 L101,14 L89,8 L90,3 L97,0 L123,0 L129,3 L130,8 L125,11 L118,13 L117,18 L116,96 L113,117 L108,129 L99,139 L89,145 L82,148 L73,150 L51,150 L36,146 L26,140 L19,134 L13,125 L9,112 L8,101 L7,21 L5,14 L-5,10 L-7,8 L-6,4 L-3,1 Z " fill="#040404" transform="translate(345,821)"/>
<path d="M0,0 L31,0 L38,3 L39,8 L35,11 L29,14 L30,19 L38,35 L51,57 L55,63 L57,64 L59,59 L73,35 L82,18 L82,13 L74,8 L74,3 L81,0 L107,0 L112,3 L113,8 L102,14 L95,22 L84,39 L69,63 L63,73 L63,124 L64,131 L68,134 L75,137 L76,142 L73,145 L65,147 L40,147 L32,144 L30,142 L31,137 L40,133 L42,133 L44,120 L44,75 L29,51 L9,21 L4,15 L-6,9 L-7,4 L-3,1 Z " fill="#050505" transform="translate(806,821)"/>
<path d="M0,0 L9,0 L12,2 L11,7 L6,10 L5,12 L5,114 L6,118 L21,121 L23,122 L22,127 L18,129 L-29,129 L-34,126 L-33,122 L-30,120 L-14,118 L-13,114 L-13,21 L-14,16 L-24,18 L-31,19 L-34,16 L-33,12 L-30,9 L-16,4 Z " fill="#070707" transform="translate(978,838)"/>
<path d="M0,0 L9,0 L12,2 L11,7 L6,10 L5,12 L5,114 L6,118 L21,121 L23,122 L22,127 L18,129 L-29,129 L-34,126 L-33,122 L-30,120 L-14,118 L-13,114 L-13,21 L-14,16 L-24,18 L-31,19 L-34,16 L-33,12 L-30,9 L-16,4 Z " fill="#070707" transform="translate(113,838)"/>
</svg>