<svg xmlns="http://www.w3.org/2000/svg"  viewBox="0 0 50 50" width="25px" height="25px"><path d="M 17.722656 10 C 10.560656 10 10 10.560656 10 17.722656 L 10 32.277344 C 10 39.439344 10.560656 40 17.722656 40 L 32.277344 40 C 39.439344 40 40 39.439344 40 32.277344 L 40 17.769531 C 40 10.563531 39.436469 10 32.230469 10 L 17.722656 10 z M 17 11 L 33 11 C 38.565 11 39 11.435 39 17 L 39 33 C 39 38.565 38.565 39 33 39 L 29.712891 39 L 29.712891 29.355469 L 33.453125 29.355469 L 34.013672 24.894531 L 29.714844 24.894531 L 29.714844 21.771484 C 29.714844 20.534484 30.5495 19.900391 31.4375 19.900391 C 32.3255 19.900391 34.164062 19.875 34.164062 19.875 L 34.164062 15.884766 C 34.164062 15.884766 32.528422 15.695312 30.857422 15.695312 C 29.453422 15.695312 27.907922 16.091234 26.669922 17.365234 C 25.410922 18.660234 25.228516 20.57225 25.228516 22.90625 L 25.228516 24.896484 L 21.478516 24.896484 L 21.478516 29.357422 L 25.228516 29.357422 L 25.228516 39 L 17 39 C 11.435 39 11 38.565 11 33 L 11 17 C 11 11.435 11.435 11 17 11 z"/></svg>