<svg xmlns="http://www.w3.org/2000/svg" xmlns:xlink="http://www.w3.org/1999/xlink" viewBox="0,0,256,256" width="50px" height="50px" fill-rule="evenodd"><g fill="none" fill-rule="evenodd" stroke="#000000" stroke-width="2" stroke-linecap="round" stroke-linejoin="round" stroke-miterlimit="10" stroke-dasharray="" stroke-dashoffset="0" font-family="none" font-weight="none" font-size="none" text-anchor="none" style="mix-blend-mode: normal"><g transform="scale(5.12,5.12)"><path d="M25,3c-12.144,0 -21.989,9.85 -21.989,22c0,11.156 8.299,20.37 19.057,21.805v-4.433c0,-1.25 -0.788,-2.373 -1.972,-2.771c-6.207,-2.086 -10.648,-8.022 -10.484,-14.972c0.199,-8.461 7.088,-15.114 15.547,-15.028c8.428,0.085 15.233,6.947 15.233,15.399c0,0.792 -0.061,1.584 -0.181,2.366c-1.885,12.42 -18.053,19.401 -18.142,19.439c0.96,0.128 1.938,0.195 2.931,0.195c12.144,0 21.989,-9.85 21.989,-22c0,-12.15 -9.845,-22 -21.989,-22"></path></g></g><g fill="#000000" fill-rule="nonzero" stroke="none" stroke-width="1" stroke-linecap="butt" stroke-linejoin="miter" stroke-miterlimit="10" stroke-dasharray="" stroke-dashoffset="0" font-family="none" font-weight="none" font-size="none" text-anchor="none" style="mix-blend-mode: normal"><g><path d="M85.2,145.89v1.95h-15.52v-1.95c0.58,-0.30667 1.25667,-0.59667 2.03,-0.87c0.76667,-0.27333 1.49,-0.47667 2.17,-0.61v0v-28.98c-0.82,-0.13333 -1.60333,-0.33667 -2.35,-0.61c-0.75333,-0.27333 -1.37,-0.56333 -1.85,-0.87v0v-1.95h15.52v1.95c-0.51333,0.34 -1.08667,0.64667 -1.72,0.92c-0.62667,0.27333 -1.26667,0.46 -1.92,0.56v0v12.39h13.57v-12.39c-0.75333,-0.13333 -1.42667,-0.33667 -2.02,-0.61c-0.6,-0.27333 -1.13667,-0.56333 -1.61,-0.87v0v-1.95h15.51v1.95c-0.58,0.37333 -1.24667,0.68 -2,0.92c-0.74667,0.24 -1.48,0.42667 -2.2,0.56v0v28.98c0.78667,0.13333 1.54667,0.33667 2.28,0.61c0.73333,0.27333 1.37333,0.56333 1.92,0.87v0v1.95h-15.51v-1.95c0.50667,-0.30667 1.06667,-0.59667 1.68,-0.87c0.62,-0.27333 1.27,-0.47667 1.95,-0.61v0v-13.26h-13.57v13.26c0.68667,0.13333 1.32,0.32 1.9,0.56c0.58,0.24 1.16,0.54667 1.74,0.92zM154.57,145.89v1.95h-15.31v-1.95c0.68667,-0.34 1.35333,-0.63 2,-0.87c0.64667,-0.23333 1.34667,-0.43667 2.1,-0.61v0v-21.4l0.26,-5.99h-0.41l-1.69,5.48l-9.88,25.34h-2.36l-9.83,-25.14l-1.84,-5.99h-0.46l0.05,6.5v20.99c0.64667,0.14 1.36333,0.36333 2.15,0.67c0.78667,0.30667 1.52,0.64667 2.2,1.02v0v1.95h-12.49v-1.95c0.54667,-0.27333 1.22,-0.59667 2.02,-0.97c0.8,-0.37333 1.56,-0.63 2.28,-0.77v0v-28.72c-0.68667,-0.13333 -1.41333,-0.32 -2.18,-0.56c-0.76667,-0.24 -1.44,-0.54667 -2.02,-0.92v0v-1.95h13.87l7.84,20.84l1.48,4.91h0.05l1.54,-5.01l7.99,-20.74h12.69v1.95c-0.58,0.34 -1.2,0.63667 -1.86,0.89c-0.66667,0.26 -1.34333,0.45667 -2.03,0.59v0v29.03c0.72,0.14 1.41333,0.34667 2.08,0.62c0.66667,0.26667 1.25333,0.53667 1.76,0.81zM180.79,144.26l2.51,-7.17h2.1c0.13333,0.54667 0.26,1.20333 0.38,1.97c0.12,0.76667 0.22333,1.58667 0.31,2.46c0.08667,0.86667 0.14667,1.72667 0.18,2.58c0.03333,0.85333 0.05,1.62333 0.05,2.31v0c-1.19333,0.74667 -2.68667,1.27333 -4.48,1.58c-1.79333,0.30667 -3.63,0.46 -5.51,0.46v0c-2.83333,0 -5.4,-0.35 -7.7,-1.05c-2.30667,-0.69333 -4.27,-1.8 -5.89,-3.32c-1.62,-1.52 -2.87333,-3.45 -3.76,-5.79c-0.88667,-2.34 -1.33,-5.14667 -1.33,-8.42v0c0,-3.24667 0.48333,-6.03667 1.45,-8.37c0.97333,-2.34 2.28,-4.26 3.92,-5.76c1.64,-1.50667 3.54333,-2.60667 5.71,-3.3c2.16667,-0.7 4.44667,-1.05 6.84,-1.05v0c2.24667,0 4.28333,0.16 6.11,0.48c1.82667,0.32667 3.32,0.76333 4.48,1.31v0c0,0.54667 -0.02333,1.24667 -0.07,2.1c-0.05333,0.85333 -0.14,1.74667 -0.26,2.68c-0.12,0.94 -0.25667,1.86333 -0.41,2.77c-0.15333,0.90667 -0.29667,1.66667 -0.43,2.28v0h-2.15l-2.82,-7.73c-0.30667,-0.17333 -0.8,-0.31 -1.48,-0.41c-0.68667,-0.10667 -1.38667,-0.16 -2.1,-0.16v0c-1.4,0 -2.71667,0.28333 -3.95,0.85c-1.22667,0.56 -2.31667,1.45667 -3.27,2.69c-0.96,1.22667 -1.71333,2.80333 -2.26,4.73c-0.54667,1.93333 -0.82,4.24667 -0.82,6.94v0c0,4.88 0.97333,8.63333 2.92,11.26c1.94667,2.63333 4.59333,3.95 7.94,3.95v0c0.95333,0 1.76333,-0.07667 2.43,-0.23c0.66667,-0.15333 1.12,-0.36667 1.36,-0.64z"></path></g></g></svg>