<svg xmlns="http://www.w3.org/2000/svg"  viewBox="0 0 50 50" width="25px" height="25px"><path d="M 25 8 C 15.611 8 8 15.611 8 25 C 8 34.389 15.611 42 25 42 C 34.389 42 42 34.389 42 25 C 42 15.611 34.389 8 25 8 z M 25 9 C 33.837 9 41 16.163 41 25 C 41 33.837 33.837 41 25 41 C 23.363388 41 21.78574 40.751423 20.298828 40.294922 C 20.605828 39.876922 21.875563 37.541453 22.226562 36.189453 C 22.422562 35.433453 23.232422 32.351562 23.232422 32.351562 C 23.758422 33.355563 25.297594 34.205078 26.933594 34.205078 C 31.802594 34.205078 35.310547 29.728063 35.310547 24.164062 C 35.310547 18.831062 30.957422 14.839844 25.357422 14.839844 C 18.390422 14.839844 14.689453 19.516375 14.689453 24.609375 C 14.689453 26.976375 15.950797 29.924281 17.966797 30.863281 C 18.272797 31.005281 18.437812 30.943438 18.507812 30.648438 C 18.560813 30.423437 18.832078 29.326406 18.955078 28.816406 C 18.994078 28.653406 18.97575 28.513516 18.84375 28.353516 C 18.17775 27.544516 17.642578 26.057922 17.642578 24.669922 C 17.642578 21.108922 20.337641 17.664062 24.931641 17.664062 C 28.897641 17.664062 31.675781 20.367422 31.675781 24.232422 C 31.675781 28.599422 29.470562 31.625 26.601562 31.625 C 25.016562 31.625 23.830938 30.314031 24.210938 28.707031 C 24.665937 26.788031 25.546875 24.717031 25.546875 23.332031 C 25.546875 22.092031 24.880906 21.058594 23.503906 21.058594 C 21.883906 21.058594 20.582031 22.735469 20.582031 24.980469 C 20.582031 26.410469 21.066406 27.376953 21.066406 27.376953 C 21.066406 27.376953 19.466828 34.142344 19.173828 35.402344 C 18.862828 36.736344 19.033609 39.427328 19.099609 39.861328 C 13.186241 37.51144 9 31.750838 9 25 C 9 16.163 16.163 9 25 9 z"/></svg>