<svg xmlns="http://www.w3.org/2000/svg"  viewBox="0 0 50 50" width="25px" height="25px"><path d="M 17.722656 10 C 10.560656 10 10 10.560656 10 17.722656 L 10 32.277344 C 10 39.439344 10.560656 40 17.722656 40 L 32.277344 40 C 39.439344 40 40 39.439344 40 32.277344 L 40 17.769531 C 40 10.563531 39.436469 10 32.230469 10 L 17.722656 10 z M 17 11 L 33 11 C 38.565 11 39 11.435 39 17 L 39 33 C 39 38.565 38.565 39 33 39 L 17 39 C 11.435 39 11 38.565 11 33 L 11 17 C 11 11.435 11.435 11 17 11 z M 26.013672 15.769531 L 26.013672 28.435547 C 26.013672 30.176547 24.499109 31.076172 23.412109 31.076172 C 22.593109 31.076172 20.732422 30.436016 20.732422 28.416016 C 20.732422 26.296016 22.470594 25.755859 23.433594 25.755859 C 23.993594 25.755859 24.212891 25.875 24.212891 25.875 L 24.212891 22.496094 C 24.212891 22.496094 23.7925 22.433594 23.3125 22.433594 C 19.8635 22.433594 17.410156 25.224016 17.410156 28.416016 C 17.410156 31.113016 19.520047 34.378906 23.373047 34.378906 C 27.477047 34.378906 29.355469 30.955547 29.355469 28.435547 L 29.355469 22.152344 C 29.355469 22.152344 31.185672 23.433594 33.638672 23.433594 L 33.638672 20.232422 C 30.825672 20.031422 29.320797 18.141531 29.216797 15.769531 L 26.013672 15.769531 z"/></svg>