<svg xmlns="http://www.w3.org/2000/svg" height="48" viewBox="0 96 960 960" width="48"><path d="M256.231 935.269q-22.82 0-38.814-15.994t-15.994-38.813V431.609q0-21.451 15.994-37.914 15.994-16.464 38.814-16.464h89.115v-24.616q0-55.846 39.281-95.442 39.282-39.596 95.693-39.596t95.815 39.715q39.404 39.715 39.404 95.323v24.616h89.483q21.512 0 37.976 16.464 16.464 16.463 16.464 37.914v448.853q0 22.819-16.464 38.813-16.464 15.994-37.915 15.994H256.231Zm0-30.192h448.423q9.231 0 16.923-7.5 7.692-7.5 7.692-17.115V432.038q0-9.23-7.692-16.923-7.692-7.692-16.923-7.692h-89.115v105.346q0 6.846-4.401 10.75-4.4 3.904-11.327 3.904-6.926 0-10.696-3.904-3.769-3.904-3.769-10.75V407.423H375.539v105.346q0 6.846-4.401 10.75-4.4 3.904-11.327 3.904-6.926 0-10.696-3.904-3.769-3.904-3.769-10.75V407.423h-89.115q-9.616 0-17.116 7.692-7.5 7.693-7.5 16.923v448.424q0 9.615 7.5 17.115 7.5 7.5 17.116 7.5Zm119.308-527.846h209.807v-24.616q0-43.384-30.407-74.115-30.406-30.731-74.807-30.731t-74.497 30.818q-30.096 30.819-30.096 74.028v24.616ZM231.615 905.077V407.423v497.654Z"/></svg>